<?xml version="1.0" encoding="utf-8"?>
<!-- Generator: Adobe Illustrator 16.0.0, SVG Export Plug-In . SVG Version: 6.00 Build 0)  -->
<!DOCTYPE svg PUBLIC "-//W3C//DTD SVG 1.1//EN" "http://www.w3.org/Graphics/SVG/1.1/DTD/svg11.dtd">
<svg version="1.1" id="Layer_1" xmlns="http://www.w3.org/2000/svg" xmlns:xlink="http://www.w3.org/1999/xlink" x="0px" y="0px"
	 width="200px" height="50px" viewBox="0 0 200 50" style="enable-background:new 0 0 200 50;" xml:space="preserve">
<style type="text/css">
<![CDATA[
	.st0{fill:#191818;}
	.st1{fill:#231F20;}
]]>
</style>
<g>
	<g>
		<path class="st0" d="M83,9.8c0-1-0.8-1.8-1.8-1.8H53.8c-1,0-1.8,0.8-1.8,1.8v27.5c0,1,0.8,1.8,1.8,1.8h27.5c1,0,1.8-0.8,1.8-1.8
			V9.8z M74,29.4c0,0-0.3,0.6-0.3,0.6H60.4c0,0,0.6-0.6,0.6-0.6V16c0,0-0.6,0-0.6,0h13.3c0,0,0.3,0,0.3,0V29.4z"/>
	</g>
	<g>
		<path class="st1" d="M96.6,21.5c1.1-1.4,1.6-3.4,1.6-6.1c0-2.7-0.5-4.7-1.6-6.1c-1.2-1.4-2.9-2.1-5.3-2.1H87
			c-0.3,0-0.5,0.1-0.7,0.3C86.1,7.7,86,7.9,86,8.1v29.1c0,0.6,0.3,0.9,0.9,0.9h4.3c2.4,0,4.2-0.7,5.3-2.1c1.1-1.4,1.6-3.4,1.6-6.1
			c0-2.7-0.5-4.7-1.6-6.1c-0.4-0.5-0.9-0.9-1.4-1.2c0.2-0.1,0.4-0.3,0.6-0.4C96,22,96.3,21.8,96.6,21.5z M91.3,36.3h-3.4V23.6h3.4
			c1.8,0,3.1,0.5,3.9,1.5c0.8,1,1.2,2.6,1.2,4.9c0,2.3-0.4,4-1.2,4.9C94.4,35.9,93.1,36.3,91.3,36.3z M91.3,21.8h-3.4V9h3.4
			c1.8,0,3.1,0.5,3.9,1.4c0.8,1,1.2,2.6,1.2,4.9c0,2.3-0.4,3.9-1.2,4.9C94.4,21.3,93.1,21.8,91.3,21.8z"/>
		<path class="st1" d="M111.6,23.3c-0.2-0.1-0.3-0.2-0.5-0.3c0.6-0.3,1.2-0.7,1.6-1.2c1.1-1.4,1.7-3.5,1.7-6.2
			c0-2.8-0.6-4.9-1.8-6.2c-1.2-1.3-3-2-5.5-2h-4.8c-0.2,0-0.4,0.1-0.6,0.3c-0.2,0.2-0.3,0.4-0.3,0.6v29.1c0,0.3,0.1,0.5,0.3,0.7
			s0.4,0.3,0.6,0.3c0.6,0,0.9-0.3,0.9-0.9V23.8h3.9c1.7,0,3.1,0.5,4.1,1.5c1,1,1.4,2.4,1.4,4.2v7.7c0,0.3,0.1,0.5,0.3,0.7
			c0.2,0.2,0.4,0.3,0.6,0.3c0.6,0,0.9-0.3,0.9-0.9v-7.7c0-2.4-0.7-4.2-2-5.5C112.1,23.6,111.8,23.4,111.6,23.3z M112.5,15.4
			c0,2.4-0.4,4.1-1.3,5c-0.9,1-2.3,1.5-4.2,1.5h-3.9V9h3.9c1.9,0,3.3,0.5,4.2,1.5C112.1,11.5,112.5,13.2,112.5,15.4z"/>
		<path class="st1" d="M120.3,10.5c0.8-1,2-1.5,3.6-1.5c1.6,0,2.9,0.5,3.6,1.5c0.8,1.1,1.3,2.7,1.3,4.9c0,0.6,0.3,0.9,0.9,0.9
			s0.9-0.3,0.9-0.9c0-1.7-0.2-3.1-0.6-4.1c-0.4-1.1-0.9-1.9-1.6-2.5c-0.7-0.6-1.4-1-2.2-1.2c-1.5-0.4-3-0.4-4.6,0
			c-0.8,0.2-1.5,0.6-2.2,1.2c-0.7,0.6-1.2,1.5-1.6,2.5c-0.4,1.1-0.6,2.5-0.6,4.1v14.3c0,1.7,0.2,3.1,0.6,4.2
			c0.4,1.1,0.9,1.9,1.6,2.5c0.7,0.6,1.4,1,2.2,1.3c0.8,0.2,1.6,0.3,2.3,0.3c0.8,0,1.6-0.1,2.3-0.3c0.8-0.2,1.5-0.6,2.2-1.3
			c0.7-0.6,1.2-1.5,1.6-2.5c0.4-1.1,0.6-2.5,0.6-4.2c0-0.6-0.3-0.9-0.9-0.9s-0.9,0.3-0.9,0.9c0,2.2-0.4,3.9-1.3,5
			c-0.8,1-2,1.5-3.6,1.5c-1.6,0-2.8-0.5-3.6-1.5c-0.8-1.1-1.3-2.8-1.3-5V15.5C119.1,13.3,119.5,11.6,120.3,10.5z"/>
		<path class="st1" d="M138.8,21.5l8.5-12.8c0.2-0.2,0.2-0.4,0.1-0.7c-0.1-0.2-0.2-0.4-0.4-0.6c-0.2-0.1-0.4-0.2-0.6-0.1
			c-0.3,0-0.5,0.2-0.6,0.4l-11,16.5v-16c0-0.2-0.1-0.4-0.3-0.6c-0.2-0.2-0.4-0.3-0.6-0.3c-0.3,0-0.5,0.1-0.7,0.3
			c-0.2,0.2-0.3,0.4-0.3,0.6v29.1c0,0.6,0.3,0.9,0.9,0.9c0.2,0,0.4-0.1,0.6-0.3c0.2-0.2,0.3-0.4,0.3-0.7v-9.8l2.9-4.3l8.1,14.5
			c0.2,0.3,0.5,0.5,0.8,0.5c0.1,0,0.2,0,0.4-0.1l0,0c0.2-0.1,0.3-0.3,0.4-0.5c0.1-0.2,0.1-0.5-0.1-0.7L138.8,21.5z"/>
	</g>
</g>
</svg>
