<?xml version="1.0" encoding="utf-8"?>
<!-- Generator: Adobe Illustrator 16.0.0, SVG Export Plug-In . SVG Version: 6.00 Build 0)  -->
<!DOCTYPE svg PUBLIC "-//W3C//DTD SVG 1.1//EN" "http://www.w3.org/Graphics/SVG/1.1/DTD/svg11.dtd">
<svg version="1.1" id="Layer_1" xmlns="http://www.w3.org/2000/svg" xmlns:xlink="http://www.w3.org/1999/xlink" x="0px" y="0px"
	 width="50px" height="50px" viewBox="0 0 50 50" style="enable-background:new 0 0 50 50;" xml:space="preserve">
<style type="text/css">
<![CDATA[
	.st0{fill:#191818;}
]]>
</style>
<g>
	<path class="st0" d="M41,10.8c0-1-0.8-1.8-1.8-1.8H11.8c-1,0-1.8,0.8-1.8,1.8v27.5c0,1,0.8,1.8,1.8,1.8h27.5c1,0,1.8-0.8,1.8-1.8
		V10.8z M32,30.4c0,0-0.3,0.6-0.3,0.6H18.4c0,0,0.6-0.6,0.6-0.6V17c0,0-0.6,0-0.6,0h13.3c0,0,0.3,0,0.3,0V30.4z"/>
</g>
</svg>
