<svg xmlns="http://www.w3.org/2000/svg" viewBox="0 0 72.6 23.5"><defs><style>.cls-1{fill:#ebbe1b;}.cls-2{fill:#333;}</style></defs><title>yellow-brck-logo</title><g id="Layer_2" data-name="Layer 2"><g id="Layer_1-2" data-name="Layer 1"><rect class="cls-1" width="23.5" height="23.46" rx="1.3" ry="1.3"/><path class="cls-2" d="M16.8,16.8H6.7V6.7H16.8Z"/><path class="cls-1" d="M34.1,10.8a7.3,7.3,0,0,0,1.2-4.6,7.3,7.3,0,0,0-1.2-4.6,5,5,0,0,0-4-1.6H26.8l-.5.2a.6.6,0,0,0-.2.5v22a.6.6,0,0,0,.7.7h3.3a5,5,0,0,0,4-1.6,7.4,7.4,0,0,0,1.2-4.6,7.3,7.3,0,0,0-1.2-4.6,4.1,4.1,0,0,0-1.1-.9l.5-.3Zm-4,11.3H27.5V12.4h2.6A3.5,3.5,0,0,1,33,13.5a6,6,0,0,1,.9,3.7A6,6,0,0,1,33,21,3.6,3.6,0,0,1,30.1,22.1Zm0-11H27.5V1.4h2.6a3.6,3.6,0,0,1,3,1.1,6,6,0,0,1,.9,3.7A5.9,5.9,0,0,1,33,9.9,3.5,3.5,0,0,1,30.1,11Z"/><path class="cls-1" d="M45.4,12.2l-.4-.2a3.9,3.9,0,0,0,1.2-.9,7.2,7.2,0,0,0,1.3-4.7,7,7,0,0,0-1.3-4.7A5.3,5.3,0,0,0,42,0H38.4l-.5.2a.6.6,0,0,0-.2.5v22a.7.7,0,0,0,.2.5l.5.2a.6.6,0,0,0,.7-.7V12.6H42a4.1,4.1,0,0,1,3.1,1.1,4.3,4.3,0,0,1,1.1,3.2v5.9a.7.7,0,0,0,.2.5l.5.2a.6.6,0,0,0,.7-.7V16.8A5.5,5.5,0,0,0,46,12.6Zm.7-5.9a5.8,5.8,0,0,1-1,3.8A3.9,3.9,0,0,1,42,11.2H39.1V1.4H42a3.9,3.9,0,0,1,3.1,1.1A5.9,5.9,0,0,1,46.1,6.2Z"/><path class="cls-1" d="M52.1,2.5a3.3,3.3,0,0,1,2.7-1.1,3.2,3.2,0,0,1,2.7,1.1,6.1,6.1,0,0,1,1,3.7.7.7,0,0,0,1.4,0,9.2,9.2,0,0,0-.5-3.1,4.9,4.9,0,0,0-1.2-1.9A3.9,3.9,0,0,0,56.6.3,6.4,6.4,0,0,0,53,.3a4,4,0,0,0-1.7.9,4.9,4.9,0,0,0-1.2,1.9,9.2,9.2,0,0,0-.5,3.1V17.1a9.1,9.1,0,0,0,.5,3.2,5.1,5.1,0,0,0,1.2,1.9,3.9,3.9,0,0,0,1.7,1l1.7.2,1.8-.2a3.9,3.9,0,0,0,1.7-1,5.1,5.1,0,0,0,1.2-1.9,9.2,9.2,0,0,0,.5-3.2.7.7,0,1,0-1.4,0,6.2,6.2,0,0,1-1,3.8,3.2,3.2,0,0,1-2.7,1.1,3.4,3.4,0,0,1-2.7-1.1,6.2,6.2,0,0,1-1-3.8V6.3A6.1,6.1,0,0,1,52.1,2.5Z"/><path class="cls-1" d="M66,10.8l6.5-9.7a.6.6,0,0,0,.1-.5.8.8,0,0,0-.3-.5h-.5l-.5.3L63,12.8V.7a.6.6,0,0,0-.2-.5L62.3,0l-.5.2a.6.6,0,0,0-.2.5v22a.6.6,0,0,0,.7.7l.5-.2a.7.7,0,0,0,.2-.5V15.3l2.2-3.3,6.2,11a.7.7,0,0,0,.6.3h.4a.7.7,0,0,0,.3-.4.6.6,0,0,0,0-.5Z"/></g></g></svg>